<?xml version="1.0" encoding="utf-8"?>
<!-- Generator: Adobe Illustrator 24.0.1, SVG Export Plug-In . SVG Version: 6.00 Build 0)  -->
<svg version="1.1" id="Layer_1" xmlns="http://www.w3.org/2000/svg" xmlns:xlink="http://www.w3.org/1999/xlink" x="0px" y="0px"
	 viewBox="0 0 1440 1024" style="enable-background:new 0 0 1440 1024;" xml:space="preserve">
<style type="text/css">
	.st0{clip-path:url(#SVGID_2_);}
	.st1{fill:#17A598;fill-opacity:0.75;}
	.st2{fill:#324455;}
</style>
<g>
	<defs>
		<rect id="SVGID_1_" x="-165" y="25" width="1440" height="1024"/>
	</defs>
	<clipPath id="SVGID_2_">
		<use xlink:href="#SVGID_1_"  style="overflow:visible;"/>
	</clipPath>
	<g id="Desktop_-_1" class="st0">
		<rect x="-165" y="25" class="st1" width="1440" height="1024"/>
		<path id="Polygon_1" class="st2" d="M-12.5,1547.4c-3.4,7.5-13.6,6.3-16.2-1.9L-640.4-412.7c-2.1-6.8,2.9-13.3,9.3-12.1
			L677.3-195.5c30.1,5.3,45.2,7.9,46.1,16.1c0.9,8.2-13.3,14.2-41.7,26.4c-115.9,49.5,25-2.5,66.6-14.4c3.1-0.9-4.7,1.3-0.1,6.7
			c4.6,5.3,7.5-1.1,6.3,1.5L-12.5,1547.4z"/>
	</g>
</g>
</svg>
